<svg xmlns="http://www.w3.org/2000/svg" viewBox="0 0 800 500" role="img" aria-label="Illustration av automationsflöden">
  <defs>
    <linearGradient id="g1" x1="0" x2="1" y1="0" y2="1">
      <stop offset="0" stop-color="#0A84FF"/>
      <stop offset="1" stop-color="#0BB5A7"/>
    </linearGradient>
    <filter id="shadow" x="-20%" y="-20%" width="140%" height="140%">
      <feDropShadow dx="0" dy="8" stdDeviation="16" flood-color="rgba(0,0,0,0.08)"/>
    </filter>
  </defs>
  <rect width="800" height="500" rx="24" fill="#fff"/>
  <g filter="url(#shadow)">
    <rect x="80" y="80" width="640" height="180" rx="18" fill="#ffffff" stroke="#e5e7eb"/>
    <circle cx="140" cy="170" r="32" fill="url(#g1)" opacity="0.18"/>
    <rect x="200" y="120" width="240" height="20" rx="10" fill="#0A84FF" opacity="0.12"/>
    <rect x="200" y="150" width="300" height="16" rx="8" fill="#0A84FF" opacity="0.20"/>
    <rect x="200" y="176" width="220" height="12" rx="6" fill="#0BB5A7" opacity="0.24"/>
  </g>
  <g filter="url(#shadow)">
    <rect x="120" y="300" width="240" height="100" rx="14" fill="#ffffff" stroke="#e5e7eb"/>
    <rect x="150" y="330" width="180" height="14" rx="7" fill="#0A84FF" opacity="0.18"/>
    <rect x="150" y="354" width="120" height="10" rx="5" fill="#0BB5A7" opacity="0.22"/>
  </g>
  <g filter="url(#shadow)">
    <rect x="440" y="300" width="240" height="100" rx="14" fill="#ffffff" stroke="#e5e7eb"/>
    <rect x="470" y="330" width="180" height="14" rx="7" fill="#0A84FF" opacity="0.18"/>
    <rect x="470" y="354" width="120" height="10" rx="5" fill="#0BB5A7" opacity="0.22"/>
  </g>
  <path d="M360 350h60" stroke="url(#g1)" stroke-width="4" stroke-linecap="round"/>
  <path d="M420 350l-8-6m8 6l-8 6" stroke="url(#g1)" stroke-width="3" stroke-linecap="round"/>
</svg>


