<svg xmlns="http://www.w3.org/2000/svg" viewBox="0 0 64 64" role="img" aria-label="AUTOMATE IT ikon">
  <defs>
    <linearGradient id="g" x1="0" x2="1" y1="0" y2="1">
      <stop offset="0" stop-color="#0A84FF"/>
      <stop offset="1" stop-color="#0BB5A7"/>
    </linearGradient>
  </defs>
  <rect rx="14" width="64" height="64" fill="#fff"/>
  <g transform="translate(10,10)">
    <path d="M12 10h20a6 6 0 0 1 6 6v12a6 6 0 0 1-6 6H12a6 6 0 0 1-6-6V16a6 6 0 0 1 6-6z" fill="url(#g)" opacity="0.15"/>
    <path d="M22 8l-8 20h6l2.2-6h9.6l2.2 6h6L32 8h-10zm2.6 9l2.6-7 2.6 7h-5.2z" fill="url(#g)"/>
  </g>
</svg>


